<svg width="43" height="43" viewBox="0 0 43 43" fill="none" xmlns="http://www.w3.org/2000/svg">
<path fill-rule="evenodd" clip-rule="evenodd" d="M11.8558 2.93738C6.80387 2.93738 2.7085 7.03275 2.7085 12.0846V31.3792C2.7085 36.4311 6.80387 40.5264 11.8558 40.5264H31.1503C36.2022 40.5264 40.2976 36.4311 40.2976 31.3792V12.0846C40.2976 7.03275 36.2022 2.93738 31.1503 2.93738H11.8558ZM1.7085 12.0846C1.7085 6.48046 6.25158 1.93738 11.8558 1.93738H31.1503C36.7545 1.93738 41.2976 6.48046 41.2976 12.0846V31.3792C41.2976 36.9834 36.7545 41.5264 31.1503 41.5264H11.8558C6.25158 41.5264 1.7085 36.9834 1.7085 31.3792V12.0846ZM22.6455 14.5083C21.1438 14.2856 19.61 14.5421 18.2625 15.2414C16.9149 15.9406 15.8221 17.0469 15.1396 18.403C14.457 19.7591 14.2195 21.2959 14.4607 22.7948C14.7018 24.2937 15.4095 25.6783 16.483 26.7518C17.5565 27.8253 18.9412 28.533 20.4401 28.7742C21.939 29.0154 23.4758 28.7778 24.8319 28.0953C26.1879 27.4127 27.2943 26.3199 27.9935 24.9724C28.6927 23.6248 28.9492 22.0911 28.7265 20.5893C28.4994 19.0575 27.7856 17.6393 26.6906 16.5443C25.5955 15.4493 24.1774 14.7355 22.6455 14.5083ZM17.8019 14.3538C19.3362 13.5577 21.0824 13.2656 22.7922 13.5191C24.5363 13.7778 26.1509 14.5905 27.3977 15.8372C28.6444 17.0839 29.4571 18.6986 29.7157 20.4427C29.9693 22.1525 29.6772 23.8987 28.8811 25.433C28.085 26.9672 26.8254 28.2114 25.2814 28.9885C23.7375 29.7656 21.9878 30.0361 20.2812 29.7615C18.5747 29.4869 16.9982 28.6812 15.7759 27.4589C14.5537 26.2367 13.748 24.6602 13.4734 22.9536C13.1987 21.2471 13.4692 19.4974 14.2464 17.9534C15.0235 16.4095 16.2677 15.1498 17.8019 14.3538ZM32.115 10.6199C31.8389 10.6199 31.615 10.8438 31.615 11.1199C31.615 11.3961 31.8389 11.6199 32.115 11.6199H32.1371C32.4133 11.6199 32.6371 11.3961 32.6371 11.1199C32.6371 10.8438 32.4133 10.6199 32.1371 10.6199H32.115Z" fill="white"/>
<path d="M18.2625 15.2414L18.7231 16.129L18.7231 16.129L18.2625 15.2414ZM22.6455 14.5083L22.7922 13.5191L22.6455 14.5083ZM14.4607 22.7948L15.448 22.6359V22.6359L14.4607 22.7948ZM16.483 26.7518L17.1901 26.0447L17.1901 26.0447L16.483 26.7518ZM20.4401 28.7742L20.599 27.7869H20.599L20.4401 28.7742ZM24.8319 28.0953L25.2814 28.9885L24.8319 28.0953ZM27.9935 24.9724L27.1059 24.5118L27.1059 24.5118L27.9935 24.9724ZM28.7265 20.5893L29.7157 20.4427V20.4427L28.7265 20.5893ZM26.6906 16.5443L25.9835 17.2514L26.6906 16.5443ZM22.7922 13.5191L22.9389 12.53L22.7922 13.5191ZM17.8019 14.3538L17.3413 13.4661L17.3413 13.4661L17.8019 14.3538ZM27.3977 15.8372L26.6906 16.5443L27.3977 15.8372ZM29.7157 20.4427L28.7265 20.5893L29.7157 20.4427ZM28.8811 25.433L27.9935 24.9724V24.9724L28.8811 25.433ZM25.2814 28.9885L24.8319 28.0953L24.8319 28.0953L25.2814 28.9885ZM15.7759 27.4589L16.483 26.7518L16.483 26.7518L15.7759 27.4589ZM14.2464 17.9534L15.1396 18.403V18.403L14.2464 17.9534ZM3.7085 12.0846C3.7085 7.58503 7.35615 3.93738 11.8558 3.93738V1.93738C6.25158 1.93738 1.7085 6.48046 1.7085 12.0846H3.7085ZM3.7085 31.3792V12.0846H1.7085V31.3792H3.7085ZM11.8558 39.5264C7.35615 39.5264 3.7085 35.8788 3.7085 31.3792H1.7085C1.7085 36.9834 6.25158 41.5264 11.8558 41.5264V39.5264ZM31.1503 39.5264H11.8558V41.5264H31.1503V39.5264ZM39.2976 31.3792C39.2976 35.8788 35.6499 39.5264 31.1503 39.5264V41.5264C36.7545 41.5264 41.2976 36.9834 41.2976 31.3792H39.2976ZM39.2976 12.0846V31.3792H41.2976V12.0846H39.2976ZM31.1503 3.93738C35.6499 3.93738 39.2976 7.58503 39.2976 12.0846H41.2976C41.2976 6.48046 36.7545 1.93738 31.1503 1.93738V3.93738ZM11.8558 3.93738H31.1503V1.93738H11.8558V3.93738ZM11.8558 0.937378C5.6993 0.937378 0.708496 5.92818 0.708496 12.0846H2.7085C2.7085 7.03275 6.80387 2.93738 11.8558 2.93738V0.937378ZM31.1503 0.937378H11.8558V2.93738H31.1503V0.937378ZM42.2976 12.0846C42.2976 5.92818 37.3068 0.937378 31.1503 0.937378V2.93738C36.2022 2.93738 40.2976 7.03275 40.2976 12.0846H42.2976ZM42.2976 31.3792V12.0846H40.2976V31.3792H42.2976ZM31.1503 42.5264C37.3068 42.5264 42.2976 37.5356 42.2976 31.3792H40.2976C40.2976 36.4311 36.2022 40.5264 31.1503 40.5264V42.5264ZM11.8558 42.5264H31.1503V40.5264H11.8558V42.5264ZM0.708496 31.3792C0.708496 37.5356 5.6993 42.5264 11.8558 42.5264V40.5264C6.80387 40.5264 2.7085 36.4311 2.7085 31.3792H0.708496ZM0.708496 12.0846V31.3792H2.7085V12.0846H0.708496ZM18.7231 16.129C19.8839 15.5266 21.2052 15.3057 22.4988 15.4975L22.7922 13.5191C21.0824 13.2656 19.3362 13.5577 17.8019 14.3538L18.7231 16.129ZM16.0328 18.8526C16.6208 17.6844 17.5622 16.7313 18.7231 16.129L17.8019 14.3538C16.2677 15.1498 15.0235 16.4095 14.2464 17.9534L16.0328 18.8526ZM15.448 22.6359C15.2402 21.3447 15.4448 20.0208 16.0328 18.8526L14.2464 17.9534C13.4692 19.4974 13.1987 21.2471 13.4734 22.9536L15.448 22.6359ZM17.1901 26.0447C16.2654 25.12 15.6557 23.9271 15.448 22.6359L13.4734 22.9536C13.748 24.6602 14.5537 26.2367 15.7759 27.4589L17.1901 26.0447ZM20.599 27.7869C19.3077 27.5791 18.1149 26.9695 17.1901 26.0447L15.7759 27.4589C16.9982 28.6812 18.5747 29.4869 20.2812 29.7615L20.599 27.7869ZM24.3823 27.202C23.2141 27.79 21.8902 27.9947 20.599 27.7869L20.2812 29.7615C21.9878 30.0361 23.7375 29.7656 25.2814 28.9885L24.3823 27.202ZM27.1059 24.5118C26.5035 25.6727 25.5505 26.614 24.3823 27.202L25.2814 28.9885C26.8254 28.2114 28.085 26.9672 28.8811 25.433L27.1059 24.5118ZM27.7374 20.736C27.9292 22.0297 27.7082 23.3509 27.1059 24.5118L28.8811 25.433C29.6772 23.8987 29.9693 22.1525 29.7157 20.4427L27.7374 20.736ZM25.9835 17.2514C26.9268 18.1947 27.5417 19.4164 27.7374 20.736L29.7157 20.4427C29.4571 18.6986 28.6444 17.0839 27.3977 15.8372L25.9835 17.2514ZM22.4988 15.4975C23.8185 15.6932 25.0401 16.3081 25.9835 17.2514L27.3977 15.8372C26.1509 14.5905 24.5363 13.7778 22.7922 13.5191L22.4988 15.4975ZM22.9389 12.53C21.021 12.2456 19.0623 12.5732 17.3413 13.4661L18.2625 15.2414C19.61 14.5421 21.1438 14.2856 22.6455 14.5083L22.9389 12.53ZM28.1048 15.1301C26.7063 13.7317 24.8952 12.8201 22.9389 12.53L22.6455 14.5083C24.1774 14.7355 25.5955 15.4493 26.6906 16.5443L28.1048 15.1301ZM30.7049 20.296C30.4148 18.3397 29.5032 16.5285 28.1048 15.1301L26.6906 16.5443C27.7856 17.6393 28.4994 19.0575 28.7265 20.5893L30.7049 20.296ZM29.7687 25.8935C30.6617 24.1726 30.9893 22.2138 30.7049 20.296L28.7265 20.5893C28.9492 22.0911 28.6927 23.6248 27.9935 24.9724L29.7687 25.8935ZM25.731 29.8817C27.4629 29.0101 28.8758 27.6145 29.7687 25.8935L27.9935 24.9724C27.2943 26.3199 26.1879 27.4127 24.8319 28.0953L25.731 29.8817ZM20.1224 30.7488C22.0366 31.0568 23.9992 30.7534 25.731 29.8817L24.8319 28.0953C23.4758 28.7778 21.939 29.0154 20.4401 28.7742L20.1224 30.7488ZM15.0688 28.166C16.4398 29.537 18.2081 30.4408 20.1224 30.7488L20.4401 28.7742C18.9412 28.533 17.5565 27.8253 16.483 26.7518L15.0688 28.166ZM12.4861 23.1125C12.7941 25.0267 13.6978 26.7951 15.0688 28.166L16.483 26.7518C15.4095 25.6783 14.7018 24.2937 14.4607 22.7948L12.4861 23.1125ZM13.3531 17.5038C12.4814 19.2357 12.178 21.1983 12.4861 23.1125L14.4607 22.7948C14.2195 21.2959 14.457 19.7591 15.1396 18.403L13.3531 17.5038ZM17.3413 13.4661C15.6204 14.3591 14.2248 15.772 13.3531 17.5038L15.1396 18.403C15.8221 17.0469 16.9149 15.9406 18.2625 15.2414L17.3413 13.4661ZM32.615 11.1199C32.615 11.3961 32.3911 11.6199 32.115 11.6199V9.61994C31.2866 9.61994 30.615 10.2915 30.615 11.1199H32.615ZM32.115 10.6199C32.3911 10.6199 32.615 10.8438 32.615 11.1199H30.615C30.615 11.9484 31.2866 12.6199 32.115 12.6199V10.6199ZM32.1371 10.6199H32.115V12.6199H32.1371V10.6199ZM31.6371 11.1199C31.6371 10.8438 31.861 10.6199 32.1371 10.6199V12.6199C32.9656 12.6199 33.6371 11.9484 33.6371 11.1199H31.6371ZM32.1371 11.6199C31.861 11.6199 31.6371 11.3961 31.6371 11.1199H33.6371C33.6371 10.2915 32.9656 9.61994 32.1371 9.61994V11.6199ZM32.115 11.6199H32.1371V9.61994H32.115V11.6199Z" fill="white"/>
</svg>
