<svg width="62" height="63" viewBox="0 0 62 63" fill="none" xmlns="http://www.w3.org/2000/svg">
<circle cx="30.8813" cy="31.2828" r="30.228" fill="#22242A" stroke="white"/>
<path d="M48.1428 21.2219V26.3417C46.0819 26.1688 44.0561 25.6755 42.2146 24.8018L42.2065 24.7979L42.1983 24.7942C41.275 24.3763 40.3994 23.8309 39.4941 23.2392L37.9513 22.2306L37.947 24.0739C37.943 25.8208 37.9441 27.5636 37.9453 29.3036C37.9475 32.6665 37.9497 36.0188 37.9145 39.3698C37.7841 41.6342 37.0344 43.88 35.7285 45.7304L35.7239 45.737L35.7194 45.7436C33.6074 48.84 29.9297 50.8619 26.1766 50.9247L26.1565 50.925L26.1363 50.9261C23.8478 51.0569 21.5399 50.4327 19.5585 49.2646C16.2941 47.3396 13.998 43.812 13.6586 40.0536C13.6187 39.2135 13.6055 38.3858 13.6377 37.5837C13.9348 34.5175 15.4581 31.581 17.8094 29.5882L17.8094 29.5882L17.8196 29.5794C20.2964 27.4223 23.6883 26.3151 26.9385 26.671C26.9423 27.8623 26.922 29.0332 26.9015 30.2155C26.8894 30.9176 26.8772 31.6238 26.8699 32.3408C25.2179 32.1138 23.4495 32.4201 22.0181 33.4087C20.7285 34.2489 19.7595 35.5198 19.2504 36.9497C18.8628 37.9178 18.9046 38.9846 18.9356 39.7756C18.9408 39.9066 18.9456 40.0301 18.9482 40.1443L18.9495 40.2052L18.9583 40.2654C19.4417 43.602 22.615 46.4389 26.1286 46.1504C28.4378 46.111 30.6018 44.7794 31.7817 42.8559L31.7908 42.8411L31.7994 42.826C31.8247 42.7813 31.852 42.7341 31.8807 42.6842C32.1732 42.1773 32.6169 41.4082 32.6471 40.5146C32.7736 38.2041 32.7712 35.8886 32.7689 33.6028C32.768 32.7612 32.7671 31.9235 32.7727 31.0916L32.7727 31.087C32.7779 28.5498 32.7767 26.0182 32.7755 23.4898C32.7734 19.2979 32.7714 15.1148 32.7986 10.9297C33.778 10.9205 34.7481 10.9193 35.7215 10.918C36.3901 10.9172 37.0602 10.9163 37.7359 10.9128C38.0439 13.4738 39.0744 16.0493 41.0181 17.9292C42.9714 19.8641 45.5984 20.8182 48.1428 21.2219Z" fill="#22242A" stroke="white" stroke-width="2"/>
</svg>
