<svg width="63" height="62" viewBox="0 0 63 62" fill="none" xmlns="http://www.w3.org/2000/svg">
<circle cx="31.6743" cy="30.9679" r="30.228" fill="#22242A" stroke="white"/>
<path fill-rule="evenodd" clip-rule="evenodd" d="M22.1165 12.2629C17.0646 12.2629 12.9692 16.3582 12.9692 21.4101V40.7047C12.9692 45.7566 17.0646 49.8519 22.1165 49.8519H41.411C46.4629 49.8519 50.5583 45.7566 50.5583 40.7047V21.4101C50.5583 16.3582 46.4629 12.2629 41.411 12.2629H22.1165ZM11.9692 21.4101C11.9692 15.806 16.5123 11.2629 22.1165 11.2629H41.411C47.0152 11.2629 51.5583 15.806 51.5583 21.4101V40.7047C51.5583 46.3089 47.0152 50.8519 41.411 50.8519H22.1165C16.5123 50.8519 11.9692 46.3089 11.9692 40.7047V21.4101ZM32.9063 23.8338C31.4045 23.6111 29.8708 23.8677 28.5232 24.5669C27.1757 25.2661 26.0829 26.3724 25.4003 27.7285C24.7178 29.0846 24.4802 30.6214 24.7214 32.1203C24.9626 33.6192 25.6703 35.0038 26.7438 36.0773C27.8173 37.1508 29.202 37.8585 30.7008 38.0997C32.1997 38.3409 33.7365 38.1033 35.0926 37.4208C36.4487 36.7382 37.555 35.6454 38.2542 34.2979C38.9535 32.9503 39.21 31.4166 38.9873 29.9148C38.7601 28.383 38.0463 26.9648 36.9513 25.8698C35.8563 24.7748 34.4381 24.061 32.9063 23.8338ZM28.0627 23.6793C29.5969 22.8832 31.3431 22.5911 33.053 22.8446C34.797 23.1033 36.4117 23.916 37.6584 25.1627C38.9051 26.4094 39.7178 28.0241 39.9765 29.7682C40.23 31.478 39.938 33.2242 39.1419 34.7585C38.3458 36.2927 37.0861 37.5369 35.5422 38.314C33.9982 39.0911 32.2485 39.3616 30.542 39.087C28.8354 38.8124 27.2589 38.0067 26.0367 36.7844C24.8144 35.5622 24.0087 33.9857 23.7341 32.2791C23.4595 30.5726 23.73 28.8229 24.5071 27.2789C25.2842 25.735 26.5284 24.4754 28.0627 23.6793ZM42.3757 19.9454C42.0996 19.9454 41.8757 20.1693 41.8757 20.4454C41.8757 20.7216 42.0996 20.9454 42.3757 20.9454H42.3979C42.674 20.9454 42.8979 20.7216 42.8979 20.4454C42.8979 20.1693 42.674 19.9454 42.3979 19.9454H42.3757Z" fill="white"/>
<path d="M28.5232 24.5669L28.9838 25.4545L28.9838 25.4545L28.5232 24.5669ZM32.9063 23.8338L33.053 22.8446L32.9063 23.8338ZM24.7214 32.1203L25.7087 31.9614V31.9614L24.7214 32.1203ZM26.7438 36.0773L27.4509 35.3702L27.4509 35.3702L26.7438 36.0773ZM30.7008 38.0997L30.8597 37.1124H30.8597L30.7008 38.0997ZM35.0926 37.4208L35.5422 38.314L35.0926 37.4208ZM38.2542 34.2979L37.3666 33.8373L37.3666 33.8373L38.2542 34.2979ZM38.9873 29.9148L39.9765 29.7682V29.7682L38.9873 29.9148ZM36.9513 25.8698L36.2442 26.5769L36.9513 25.8698ZM33.053 22.8446L33.1996 21.8555L33.053 22.8446ZM28.0627 23.6793L27.6021 22.7916L27.6021 22.7916L28.0627 23.6793ZM37.6584 25.1627L36.9513 25.8698L37.6584 25.1627ZM39.9765 29.7682L38.9873 29.9148L39.9765 29.7682ZM39.1419 34.7585L38.2542 34.2979V34.2979L39.1419 34.7585ZM35.5422 38.314L35.0926 37.4208L35.0926 37.4208L35.5422 38.314ZM26.0367 36.7844L26.7438 36.0773L26.7438 36.0773L26.0367 36.7844ZM24.5071 27.2789L25.4003 27.7285V27.7285L24.5071 27.2789ZM13.9692 21.4101C13.9692 16.9105 17.6169 13.2629 22.1165 13.2629V11.2629C16.5123 11.2629 11.9692 15.806 11.9692 21.4101H13.9692ZM13.9692 40.7047V21.4101H11.9692V40.7047H13.9692ZM22.1165 48.8519C17.6169 48.8519 13.9692 45.2043 13.9692 40.7047H11.9692C11.9692 46.3089 16.5123 50.8519 22.1165 50.8519V48.8519ZM41.411 48.8519H22.1165V50.8519H41.411V48.8519ZM49.5583 40.7047C49.5583 45.2043 45.9107 48.8519 41.411 48.8519V50.8519C47.0152 50.8519 51.5583 46.3089 51.5583 40.7047H49.5583ZM49.5583 21.4101V40.7047H51.5583V21.4101H49.5583ZM41.411 13.2629C45.9107 13.2629 49.5583 16.9105 49.5583 21.4101H51.5583C51.5583 15.806 47.0152 11.2629 41.411 11.2629V13.2629ZM22.1165 13.2629H41.411V11.2629H22.1165V13.2629ZM22.1165 10.2629C15.96 10.2629 10.9692 15.2537 10.9692 21.4101H12.9692C12.9692 16.3582 17.0646 12.2629 22.1165 12.2629V10.2629ZM41.411 10.2629H22.1165V12.2629H41.411V10.2629ZM52.5583 21.4101C52.5583 15.2537 47.5675 10.2629 41.411 10.2629V12.2629C46.4629 12.2629 50.5583 16.3582 50.5583 21.4101H52.5583ZM52.5583 40.7047V21.4101H50.5583V40.7047H52.5583ZM41.411 51.8519C47.5675 51.8519 52.5583 46.8611 52.5583 40.7047H50.5583C50.5583 45.7566 46.4629 49.8519 41.411 49.8519V51.8519ZM22.1165 51.8519H41.411V49.8519H22.1165V51.8519ZM10.9692 40.7047C10.9692 46.8611 15.96 51.8519 22.1165 51.8519V49.8519C17.0646 49.8519 12.9692 45.7566 12.9692 40.7047H10.9692ZM10.9692 21.4101V40.7047H12.9692V21.4101H10.9692ZM28.9838 25.4545C30.1447 24.8521 31.4659 24.6312 32.7596 24.823L33.053 22.8446C31.3431 22.5911 29.5969 22.8832 28.0627 23.6793L28.9838 25.4545ZM26.2936 28.1781C26.8816 27.0099 27.8229 26.0568 28.9838 25.4545L28.0627 23.6793C26.5284 24.4753 25.2842 25.735 24.5071 27.2789L26.2936 28.1781ZM25.7087 31.9614C25.5009 30.6702 25.7056 29.3463 26.2936 28.1781L24.5071 27.2789C23.73 28.8229 23.4595 30.5726 23.7341 32.2791L25.7087 31.9614ZM27.4509 35.3702C26.5261 34.4455 25.9165 33.2526 25.7087 31.9614L23.7341 32.2791C24.0087 33.9857 24.8144 35.5622 26.0367 36.7844L27.4509 35.3702ZM30.8597 37.1124C29.5685 36.9046 28.3757 36.295 27.4509 35.3702L26.0367 36.7844C27.2589 38.0067 28.8354 38.8124 30.542 39.087L30.8597 37.1124ZM34.643 36.5275C33.4748 37.1155 32.1509 37.3202 30.8597 37.1124L30.542 39.087C32.2485 39.3616 33.9982 39.0911 35.5422 38.314L34.643 36.5275ZM37.3666 33.8373C36.7643 34.9982 35.8112 35.9396 34.643 36.5275L35.5422 38.314C37.0861 37.5369 38.3458 36.2927 39.1419 34.7585L37.3666 33.8373ZM37.9981 30.0615C38.1899 31.3552 37.969 32.6764 37.3666 33.8373L39.1419 34.7585C39.938 33.2242 40.23 31.478 39.9765 29.7682L37.9981 30.0615ZM36.2442 26.5769C37.1875 27.5202 37.8024 28.7419 37.9981 30.0615L39.9765 29.7682C39.7178 28.0241 38.9051 26.4094 37.6584 25.1627L36.2442 26.5769ZM32.7596 24.823C34.0792 25.0187 35.3009 25.6336 36.2442 26.5769L37.6584 25.1627C36.4117 23.916 34.797 23.1033 33.053 22.8446L32.7596 24.823ZM33.1996 21.8555C31.2818 21.5711 29.323 21.8987 27.6021 22.7916L28.5232 24.5669C29.8708 23.8677 31.4045 23.6111 32.9063 23.8338L33.1996 21.8555ZM38.3655 24.4556C36.9671 23.0572 35.1559 22.1456 33.1996 21.8555L32.9063 23.8338C34.4381 24.061 35.8563 24.7748 36.9513 25.8698L38.3655 24.4556ZM40.9656 29.6215C40.6756 27.6652 39.764 25.854 38.3655 24.4556L36.9513 25.8698C38.0463 26.9648 38.7601 28.383 38.9873 29.9148L40.9656 29.6215ZM40.0295 35.219C40.9225 33.4981 41.25 31.5393 40.9656 29.6215L38.9873 29.9148C39.21 31.4166 38.9535 32.9503 38.2542 34.2979L40.0295 35.219ZM35.9918 39.2072C37.7236 38.3356 39.1365 36.94 40.0295 35.219L38.2542 34.2979C37.555 35.6454 36.4487 36.7382 35.0926 37.4208L35.9918 39.2072ZM30.3831 40.0743C32.2973 40.3823 34.2599 40.0789 35.9918 39.2072L35.0926 37.4208C33.7365 38.1033 32.1997 38.3409 30.7008 38.0997L30.3831 40.0743ZM25.3296 37.4915C26.7005 38.8625 28.4689 39.7663 30.3831 40.0743L30.7008 38.0997C29.202 37.8585 27.8173 37.1508 26.7438 36.0773L25.3296 37.4915ZM22.7468 32.438C23.0548 34.3522 23.9586 36.1206 25.3296 37.4916L26.7438 36.0773C25.6703 35.0038 24.9626 33.6192 24.7214 32.1203L22.7468 32.438ZM23.6139 26.8293C22.7422 28.5612 22.4388 30.5238 22.7468 32.438L24.7214 32.1203C24.4802 30.6214 24.7178 29.0846 25.4003 27.7285L23.6139 26.8293ZM27.6021 22.7916C25.8811 23.6846 24.4855 25.0975 23.6139 26.8293L25.4003 27.7285C26.0829 26.3724 27.1757 25.2661 28.5232 24.5669L27.6021 22.7916ZM42.8757 20.4454C42.8757 20.7216 42.6519 20.9454 42.3757 20.9454V18.9454C41.5473 18.9454 40.8757 19.617 40.8757 20.4454H42.8757ZM42.3757 19.9454C42.6519 19.9454 42.8757 20.1693 42.8757 20.4454H40.8757C40.8757 21.2739 41.5473 21.9454 42.3757 21.9454V19.9454ZM42.3979 19.9454H42.3757V21.9454H42.3979V19.9454ZM41.8979 20.4454C41.8979 20.1693 42.1217 19.9454 42.3979 19.9454V21.9454C43.2263 21.9454 43.8979 21.2739 43.8979 20.4454H41.8979ZM42.3979 20.9454C42.1217 20.9454 41.8979 20.7216 41.8979 20.4454H43.8979C43.8979 19.617 43.2263 18.9454 42.3979 18.9454V20.9454ZM42.3757 20.9454H42.3979V18.9454H42.3757V20.9454Z" fill="white"/>
</svg>
